<?xml version="1.0" standalone="no"?>
<!DOCTYPE svg PUBLIC "-//W3C//DTD SVG 20010904//EN"
 "http://www.w3.org/TR/2001/REC-SVG-20010904/DTD/svg10.dtd">
<svg version="1.0" xmlns="http://www.w3.org/2000/svg"
 width="1080.000000pt" height="1080.000000pt" viewBox="0 0 1080.000000 1080.000000"
 preserveAspectRatio="xMidYMid meet">
<metadata>
Created by potrace 1.14, written by Peter Selinger 2001-2017
</metadata>
<g transform="translate(0.000000,1080.000000) scale(0.100000,-0.100000)"
fill="#000000" stroke="none">
<path d="M4965 10625 c-391 -38 -726 -107 -1100 -226 -106 -33 -281 -95 -310
-108 -11 -6 -54 -24 -95 -41 -41 -17 -93 -39 -115 -48 -92 -39 -448 -223 -545
-282 -570 -345 -1034 -754 -1433 -1262 -115 -146 -298 -413 -389 -569 -65
-110 -221 -413 -263 -509 -15 -36 -35 -83 -45 -105 -56 -128 -169 -449 -205
-580 -150 -553 -194 -883 -194 -1440 0 -557 44 -887 194 -1440 36 -131 149
-452 205 -580 10 -22 30 -69 45 -105 42 -96 198 -399 263 -509 91 -156 274
-423 389 -569 399 -508 863 -917 1433 -1262 97 -59 453 -243 545 -282 22 -9
74 -31 115 -48 41 -17 84 -35 95 -41 52 -24 327 -116 470 -157 499 -141 872
-191 1425 -191 553 0 926 50 1425 191 143 41 418 133 470 157 11 6 54 24 95
41 41 17 93 39 115 48 92 39 448 223 545 282 570 345 1034 754 1433 1262 115
146 298 413 389 569 65 110 221 413 263 509 15 36 35 83 45 105 56 128 169
449 205 580 150 553 194 883 194 1440 0 557 -44 887 -194 1440 -36 131 -149
452 -205 580 -10 22 -30 69 -45 105 -42 96 -198 399 -263 509 -91 156 -274
423 -389 569 -399 508 -863 917 -1433 1262 -97 59 -453 243 -545 282 -22 9
-74 31 -115 48 -41 17 -84 35 -95 41 -29 13 -204 75 -310 108 -381 122 -706
188 -1110 226 -187 18 -775 18 -960 0z m436 -4006 l1034 -1521 3 1521 2 1521
800 0 800 0 0 -2750 0 -2750 -798 0 -799 0 -1029 1510 -1029 1510 -3 -1510 -2
-1510 -795 0 -795 0 0 2750 0 2750 788 0 788 0 1035 -1521z"/>
</g>
</svg>
